<?xml version="1.0" standalone="no"?>
<!DOCTYPE svg PUBLIC "-//W3C//DTD SVG 20010904//EN"
 "http://www.w3.org/TR/2001/REC-SVG-20010904/DTD/svg10.dtd">
<svg version="1.0" xmlns="http://www.w3.org/2000/svg"
 width="64.000000pt" height="64.000000pt" viewBox="0 0 64.000000 64.000000"
 preserveAspectRatio="xMidYMid meet">
<metadata>
Created by potrace 1.16, written by Peter Selinger 2001-2019
</metadata>
<g transform="translate(0.000000,64.000000) scale(0.100000,-0.100000)"
fill="#000000" stroke="none">
<path d="M160 365 c-7 -8 -8 -20 -4 -27 5 -7 7 -35 6 -63 -6 -85 51 -145 152
-164 29 -5 62 -5 81 0 33 9 85 44 85 57 0 4 -29 7 -64 7 -52 0 -74 6 -131 35
-118 60 -138 122 -43 128 28 2 66 -5 99 -17 29 -11 55 -19 57 -17 8 9 -111 46
-147 46 -22 0 -44 6 -51 15 -16 19 -24 19 -40 0z"/>
</g>
</svg>
