<svg xmlns="http://www.w3.org/2000/svg" xmlns:xlink="http://www.w3.org/1999/xlink" width="206" zoomAndPan="magnify" viewBox="0 0 252 88.499997" height="55" preserveAspectRatio="xMidYMid meet" version="1.0"><defs><g/><clipPath id="1c87fcb728"><path d="M 22.15625 4 L 40 4 L 40 22 L 22.15625 22 Z M 22.15625 4 " clip-rule="nonzero"/></clipPath><clipPath id="ab1372348b"><path d="M 36.824219 18.484375 L 70.347656 18.484375 L 70.347656 45.722656 L 36.824219 45.722656 Z M 36.824219 18.484375 " clip-rule="nonzero"/></clipPath><clipPath id="e52a016578"><path d="M 55.863281 3.171875 L 85.371094 3.171875 L 85.371094 38.210938 L 55.863281 38.210938 Z M 55.863281 3.171875 " clip-rule="nonzero"/></clipPath></defs><g fill="#000000" fill-opacity="1"><g transform="translate(21.289254, 68.066986)"><g><path d="M 8.65625 0 L 2.5 0 L 2.5 -23.140625 L 16.171875 -23.140625 L 16.171875 -18.125 L 8.65625 -18.125 L 8.65625 -13.703125 L 15.59375 -13.703125 L 15.59375 -8.6875 L 8.65625 -8.6875 Z M 8.65625 0 "/></g></g><g transform="translate(38.756547, 68.066986)"><g><path d="M 19.25 -9 C 19.25 -6.070312 18.460938 -3.785156 16.890625 -2.140625 C 15.316406 -0.503906 13.109375 0.3125 10.265625 0.3125 C 7.546875 0.3125 5.378906 -0.523438 3.765625 -2.203125 C 2.160156 -3.878906 1.359375 -6.144531 1.359375 -9 C 1.359375 -11.925781 2.144531 -14.195312 3.71875 -15.8125 C 5.300781 -17.4375 7.515625 -18.25 10.359375 -18.25 C 12.117188 -18.25 13.675781 -17.875 15.03125 -17.125 C 16.382812 -16.375 17.425781 -15.296875 18.15625 -13.890625 C 18.882812 -12.492188 19.25 -10.863281 19.25 -9 Z M 7.640625 -9 C 7.640625 -7.457031 7.84375 -6.28125 8.25 -5.46875 C 8.664062 -4.664062 9.359375 -4.265625 10.328125 -4.265625 C 11.285156 -4.265625 11.960938 -4.664062 12.359375 -5.46875 C 12.753906 -6.28125 12.953125 -7.457031 12.953125 -9 C 12.953125 -10.53125 12.75 -11.6875 12.34375 -12.46875 C 11.945312 -13.25 11.265625 -13.640625 10.296875 -13.640625 C 9.347656 -13.640625 8.664062 -13.25 8.25 -12.46875 C 7.84375 -11.695312 7.640625 -10.539062 7.640625 -9 Z M 7.640625 -9 "/></g></g><g transform="translate(59.404027, 68.066986)"><g><path d="M 19.25 -9 C 19.25 -6.070312 18.460938 -3.785156 16.890625 -2.140625 C 15.316406 -0.503906 13.109375 0.3125 10.265625 0.3125 C 7.546875 0.3125 5.378906 -0.523438 3.765625 -2.203125 C 2.160156 -3.878906 1.359375 -6.144531 1.359375 -9 C 1.359375 -11.925781 2.144531 -14.195312 3.71875 -15.8125 C 5.300781 -17.4375 7.515625 -18.25 10.359375 -18.25 C 12.117188 -18.25 13.675781 -17.875 15.03125 -17.125 C 16.382812 -16.375 17.425781 -15.296875 18.15625 -13.890625 C 18.882812 -12.492188 19.25 -10.863281 19.25 -9 Z M 7.640625 -9 C 7.640625 -7.457031 7.84375 -6.28125 8.25 -5.46875 C 8.664062 -4.664062 9.359375 -4.265625 10.328125 -4.265625 C 11.285156 -4.265625 11.960938 -4.664062 12.359375 -5.46875 C 12.753906 -6.28125 12.953125 -7.457031 12.953125 -9 C 12.953125 -10.53125 12.75 -11.6875 12.34375 -12.46875 C 11.945312 -13.25 11.265625 -13.640625 10.296875 -13.640625 C 9.347656 -13.640625 8.664062 -13.25 8.25 -12.46875 C 7.84375 -11.695312 7.640625 -10.539062 7.640625 -9 Z M 7.640625 -9 "/></g></g><g transform="translate(80.051506, 68.066986)"><g><path d="M 7.703125 0.3125 C 6.429688 0.3125 5.316406 -0.046875 4.359375 -0.765625 C 3.398438 -1.492188 2.660156 -2.566406 2.140625 -3.984375 C 1.617188 -5.398438 1.359375 -7.050781 1.359375 -8.9375 C 1.359375 -11.851562 1.941406 -14.132812 3.109375 -15.78125 C 4.285156 -17.425781 5.894531 -18.25 7.9375 -18.25 C 8.945312 -18.25 9.828125 -18.046875 10.578125 -17.640625 C 11.328125 -17.242188 12.015625 -16.570312 12.640625 -15.625 L 12.765625 -15.625 C 12.566406 -17.019531 12.46875 -18.421875 12.46875 -19.828125 L 12.46875 -24.625 L 18.703125 -24.625 L 18.703125 0 L 14.03125 0 L 12.703125 -2.265625 L 12.46875 -2.265625 C 11.40625 -0.546875 9.816406 0.3125 7.703125 0.3125 Z M 10.234375 -4.578125 C 11.222656 -4.578125 11.921875 -4.882812 12.328125 -5.5 C 12.734375 -6.125 12.953125 -7.085938 12.984375 -8.390625 L 12.984375 -8.875 C 12.984375 -10.457031 12.753906 -11.582031 12.296875 -12.25 C 11.847656 -12.925781 11.140625 -13.265625 10.171875 -13.265625 C 9.359375 -13.265625 8.726562 -12.878906 8.28125 -12.109375 C 7.832031 -11.347656 7.609375 -10.257812 7.609375 -8.84375 C 7.609375 -7.445312 7.832031 -6.382812 8.28125 -5.65625 C 8.738281 -4.9375 9.390625 -4.578125 10.234375 -4.578125 Z M 10.234375 -4.578125 "/></g></g></g><g fill="#fd9b41" fill-opacity="1"><g transform="translate(100.900937, 68.066986)"><g><path d="M 16.234375 0 L 2.5 0 L 2.5 -23.140625 L 16.234375 -23.140625 L 16.234375 -18.125 L 8.75 -18.125 L 8.75 -14.484375 L 15.6875 -14.484375 L 15.6875 -9.46875 L 8.75 -9.46875 L 8.75 -5.09375 L 16.234375 -5.09375 Z M 16.234375 0 "/></g></g><g transform="translate(118.684667, 68.066986)"><g><path d="M 5.9375 -9.140625 L 0.453125 -17.921875 L 7.484375 -17.921875 L 10.203125 -12.890625 L 12.984375 -17.921875 L 20.03125 -17.921875 L 14.421875 -9.140625 L 20.25 0 L 13.234375 0 L 10.203125 -5.4375 L 7.203125 0 L 0.15625 0 Z M 5.9375 -9.140625 "/></g></g><g transform="translate(139.094819, 68.066986)"><g><path d="M 12.890625 0.3125 C 11.984375 0.3125 11.171875 0.164062 10.453125 -0.125 C 9.742188 -0.425781 9.035156 -0.96875 8.328125 -1.75 L 8.03125 -1.75 C 8.226562 -0.5 8.328125 0.273438 8.328125 0.578125 L 8.328125 7.78125 L 2.140625 7.78125 L 2.140625 -17.921875 L 7.171875 -17.921875 L 8.03125 -15.65625 L 8.328125 -15.65625 C 9.472656 -17.382812 11.054688 -18.25 13.078125 -18.25 C 15.066406 -18.25 16.625 -17.425781 17.75 -15.78125 C 18.882812 -14.132812 19.453125 -11.875 19.453125 -9 C 19.453125 -6.113281 18.863281 -3.835938 17.6875 -2.171875 C 16.507812 -0.515625 14.910156 0.3125 12.890625 0.3125 Z M 10.828125 -13.390625 C 9.921875 -13.390625 9.285156 -13.0625 8.921875 -12.40625 C 8.554688 -11.757812 8.359375 -10.800781 8.328125 -9.53125 L 8.328125 -9.03125 C 8.328125 -7.488281 8.53125 -6.375 8.9375 -5.6875 C 9.351562 -5.007812 10.003906 -4.671875 10.890625 -4.671875 C 11.679688 -4.671875 12.253906 -5.007812 12.609375 -5.6875 C 12.972656 -6.363281 13.15625 -7.488281 13.15625 -9.0625 C 13.15625 -10.601562 12.972656 -11.707031 12.609375 -12.375 C 12.253906 -13.050781 11.660156 -13.390625 10.828125 -13.390625 Z M 10.828125 -13.390625 "/></g></g><g transform="translate(159.93216, 68.066986)"><g><path d="M 12.953125 -18.25 C 13.492188 -18.25 14.007812 -18.207031 14.5 -18.125 L 14.84375 -18.046875 L 14.28125 -12.21875 C 13.78125 -12.34375 13.082031 -12.40625 12.1875 -12.40625 C 10.832031 -12.40625 9.847656 -12.09375 9.234375 -11.46875 C 8.628906 -10.851562 8.328125 -9.96875 8.328125 -8.8125 L 8.328125 0 L 2.140625 0 L 2.140625 -17.921875 L 6.734375 -17.921875 L 7.703125 -15.0625 L 8 -15.0625 C 8.519531 -16.007812 9.238281 -16.773438 10.15625 -17.359375 C 11.082031 -17.953125 12.015625 -18.25 12.953125 -18.25 Z M 12.953125 -18.25 "/></g></g><g transform="translate(175.136932, 68.066986)"><g><path d="M 10.796875 0.3125 C 7.804688 0.3125 5.484375 -0.476562 3.828125 -2.0625 C 2.179688 -3.65625 1.359375 -5.914062 1.359375 -8.84375 C 1.359375 -11.875 2.125 -14.195312 3.65625 -15.8125 C 5.1875 -17.4375 7.367188 -18.25 10.203125 -18.25 C 12.898438 -18.25 14.984375 -17.539062 16.453125 -16.125 C 17.929688 -14.71875 18.671875 -12.691406 18.671875 -10.046875 L 18.671875 -7.296875 L 7.609375 -7.296875 C 7.648438 -6.296875 8.015625 -5.507812 8.703125 -4.9375 C 9.398438 -4.363281 10.34375 -4.078125 11.53125 -4.078125 C 12.625 -4.078125 13.625 -4.179688 14.53125 -4.390625 C 15.445312 -4.597656 16.4375 -4.945312 17.5 -5.4375 L 17.5 -1 C 16.53125 -0.5 15.523438 -0.15625 14.484375 0.03125 C 13.453125 0.21875 12.222656 0.3125 10.796875 0.3125 Z M 10.421875 -14.03125 C 9.691406 -14.03125 9.082031 -13.800781 8.59375 -13.34375 C 8.101562 -12.882812 7.816406 -12.164062 7.734375 -11.1875 L 13.046875 -11.1875 C 13.023438 -12.050781 12.78125 -12.738281 12.3125 -13.25 C 11.84375 -13.769531 11.210938 -14.03125 10.421875 -14.03125 Z M 10.421875 -14.03125 "/></g></g><g transform="translate(195.167361, 68.066986)"><g><path d="M 15.984375 -5.5 C 15.984375 -3.582031 15.328125 -2.132812 14.015625 -1.15625 C 12.710938 -0.175781 10.835938 0.3125 8.390625 0.3125 C 7.054688 0.3125 5.898438 0.238281 4.921875 0.09375 C 3.941406 -0.0390625 2.941406 -0.300781 1.921875 -0.6875 L 1.921875 -5.640625 C 2.878906 -5.210938 3.925781 -4.859375 5.0625 -4.578125 C 6.207031 -4.304688 7.234375 -4.171875 8.140625 -4.171875 C 9.472656 -4.171875 10.140625 -4.476562 10.140625 -5.09375 C 10.140625 -5.40625 9.953125 -5.6875 9.578125 -5.9375 C 9.203125 -6.1875 8.113281 -6.671875 6.3125 -7.390625 C 4.664062 -8.066406 3.515625 -8.832031 2.859375 -9.6875 C 2.210938 -10.550781 1.890625 -11.640625 1.890625 -12.953125 C 1.890625 -14.617188 2.53125 -15.914062 3.8125 -16.84375 C 5.101562 -17.78125 6.921875 -18.25 9.265625 -18.25 C 10.453125 -18.25 11.5625 -18.117188 12.59375 -17.859375 C 13.632812 -17.597656 14.71875 -17.21875 15.84375 -16.71875 L 14.15625 -12.734375 C 13.332031 -13.109375 12.460938 -13.421875 11.546875 -13.671875 C 10.628906 -13.929688 9.878906 -14.0625 9.296875 -14.0625 C 8.285156 -14.0625 7.78125 -13.816406 7.78125 -13.328125 C 7.78125 -13.015625 7.957031 -12.75 8.3125 -12.53125 C 8.664062 -12.320312 9.6875 -11.882812 11.375 -11.21875 C 12.632812 -10.695312 13.570312 -10.1875 14.1875 -9.6875 C 14.800781 -9.195312 15.253906 -8.617188 15.546875 -7.953125 C 15.835938 -7.285156 15.984375 -6.46875 15.984375 -5.5 Z M 15.984375 -5.5 "/></g></g><g transform="translate(212.444792, 68.066986)"><g><path d="M 15.984375 -5.5 C 15.984375 -3.582031 15.328125 -2.132812 14.015625 -1.15625 C 12.710938 -0.175781 10.835938 0.3125 8.390625 0.3125 C 7.054688 0.3125 5.898438 0.238281 4.921875 0.09375 C 3.941406 -0.0390625 2.941406 -0.300781 1.921875 -0.6875 L 1.921875 -5.640625 C 2.878906 -5.210938 3.925781 -4.859375 5.0625 -4.578125 C 6.207031 -4.304688 7.234375 -4.171875 8.140625 -4.171875 C 9.472656 -4.171875 10.140625 -4.476562 10.140625 -5.09375 C 10.140625 -5.40625 9.953125 -5.6875 9.578125 -5.9375 C 9.203125 -6.1875 8.113281 -6.671875 6.3125 -7.390625 C 4.664062 -8.066406 3.515625 -8.832031 2.859375 -9.6875 C 2.210938 -10.550781 1.890625 -11.640625 1.890625 -12.953125 C 1.890625 -14.617188 2.53125 -15.914062 3.8125 -16.84375 C 5.101562 -17.78125 6.921875 -18.25 9.265625 -18.25 C 10.453125 -18.25 11.5625 -18.117188 12.59375 -17.859375 C 13.632812 -17.597656 14.71875 -17.21875 15.84375 -16.71875 L 14.15625 -12.734375 C 13.332031 -13.109375 12.460938 -13.421875 11.546875 -13.671875 C 10.628906 -13.929688 9.878906 -14.0625 9.296875 -14.0625 C 8.285156 -14.0625 7.78125 -13.816406 7.78125 -13.328125 C 7.78125 -13.015625 7.957031 -12.75 8.3125 -12.53125 C 8.664062 -12.320312 9.6875 -11.882812 11.375 -11.21875 C 12.632812 -10.695312 13.570312 -10.1875 14.1875 -9.6875 C 14.800781 -9.195312 15.253906 -8.617188 15.546875 -7.953125 C 15.835938 -7.285156 15.984375 -6.46875 15.984375 -5.5 Z M 15.984375 -5.5 "/></g></g></g><g fill="#000000" fill-opacity="1"><g transform="translate(23.214809, 82.293973)"><g><path d="M 4.890625 0 L 3.609375 -1.84375 C 3.453125 -1.832031 3.328125 -1.828125 3.234375 -1.828125 L 1.75 -1.828125 L 1.75 0 L 0.890625 0 L 0.890625 -5.984375 L 3.234375 -5.984375 C 4.003906 -5.984375 4.609375 -5.796875 5.046875 -5.421875 C 5.492188 -5.054688 5.71875 -4.546875 5.71875 -3.890625 C 5.71875 -3.429688 5.601562 -3.039062 5.375 -2.71875 C 5.15625 -2.394531 4.832031 -2.160156 4.40625 -2.015625 L 5.828125 0 Z M 3.203125 -2.546875 C 3.742188 -2.546875 4.15625 -2.660156 4.4375 -2.890625 C 4.726562 -3.128906 4.875 -3.460938 4.875 -3.890625 C 4.875 -4.328125 4.726562 -4.660156 4.4375 -4.890625 C 4.15625 -5.117188 3.742188 -5.234375 3.203125 -5.234375 L 1.75 -5.234375 L 1.75 -2.546875 Z M 3.203125 -2.546875 "/></g></g></g><g fill="#000000" fill-opacity="1"><g transform="translate(30.462929, 82.293973)"><g><path d="M 5.234375 -0.75 L 5.234375 0 L 0.890625 0 L 0.890625 -5.984375 L 5.125 -5.984375 L 5.125 -5.234375 L 1.75 -5.234375 L 1.75 -3.40625 L 4.75 -3.40625 L 4.75 -2.671875 L 1.75 -2.671875 L 1.75 -0.75 Z M 5.234375 -0.75 "/></g></g></g><g fill="#000000" fill-opacity="1"><g transform="translate(37.224527, 82.293973)"><g><path d="M 2.640625 0.0625 C 2.191406 0.0625 1.753906 -0.00390625 1.328125 -0.140625 C 0.910156 -0.273438 0.582031 -0.457031 0.34375 -0.6875 L 0.671875 -1.34375 C 0.898438 -1.144531 1.191406 -0.976562 1.546875 -0.84375 C 1.898438 -0.71875 2.265625 -0.65625 2.640625 -0.65625 C 3.140625 -0.65625 3.507812 -0.738281 3.75 -0.90625 C 4 -1.070312 4.125 -1.296875 4.125 -1.578125 C 4.125 -1.785156 4.054688 -1.953125 3.921875 -2.078125 C 3.785156 -2.210938 3.617188 -2.3125 3.421875 -2.375 C 3.222656 -2.445312 2.945312 -2.523438 2.59375 -2.609375 C 2.144531 -2.710938 1.78125 -2.816406 1.5 -2.921875 C 1.21875 -3.035156 0.976562 -3.203125 0.78125 -3.421875 C 0.59375 -3.648438 0.5 -3.957031 0.5 -4.34375 C 0.5 -4.664062 0.582031 -4.953125 0.75 -5.203125 C 0.914062 -5.460938 1.171875 -5.664062 1.515625 -5.8125 C 1.859375 -5.96875 2.28125 -6.046875 2.78125 -6.046875 C 3.132812 -6.046875 3.484375 -6 3.828125 -5.90625 C 4.171875 -5.820312 4.460938 -5.691406 4.703125 -5.515625 L 4.421875 -4.84375 C 4.171875 -5 3.90625 -5.117188 3.625 -5.203125 C 3.34375 -5.285156 3.0625 -5.328125 2.78125 -5.328125 C 2.300781 -5.328125 1.9375 -5.238281 1.6875 -5.0625 C 1.445312 -4.882812 1.328125 -4.65625 1.328125 -4.375 C 1.328125 -4.164062 1.394531 -4 1.53125 -3.875 C 1.675781 -3.75 1.847656 -3.648438 2.046875 -3.578125 C 2.242188 -3.503906 2.519531 -3.425781 2.875 -3.34375 C 3.320312 -3.238281 3.679688 -3.128906 3.953125 -3.015625 C 4.234375 -2.910156 4.46875 -2.75 4.65625 -2.53125 C 4.851562 -2.3125 4.953125 -2.007812 4.953125 -1.625 C 4.953125 -1.3125 4.863281 -1.023438 4.6875 -0.765625 C 4.519531 -0.515625 4.265625 -0.3125 3.921875 -0.15625 C 3.578125 -0.0078125 3.148438 0.0625 2.640625 0.0625 Z M 2.640625 0.0625 "/></g></g></g><g fill="#000000" fill-opacity="1"><g transform="translate(43.567894, 82.293973)"><g><path d="M 2.078125 -5.234375 L 0.03125 -5.234375 L 0.03125 -5.984375 L 4.984375 -5.984375 L 4.984375 -5.234375 L 2.9375 -5.234375 L 2.9375 0 L 2.078125 0 Z M 2.078125 -5.234375 "/></g></g></g><g fill="#000000" fill-opacity="1"><g transform="translate(49.621052, 82.293973)"><g><path d="M 4.703125 -1.5 L 1.53125 -1.5 L 0.875 0 L -0.015625 0 L 2.703125 -5.984375 L 3.546875 -5.984375 L 6.265625 0 L 5.375 0 Z M 4.40625 -2.171875 L 3.125 -5.109375 L 1.828125 -2.171875 Z M 4.40625 -2.171875 "/></g></g></g><g fill="#000000" fill-opacity="1"><g transform="translate(56.911852, 82.293973)"><g><path d="M 3.375 0.0625 C 2.570312 0.0625 1.945312 -0.160156 1.5 -0.609375 C 1.0625 -1.066406 0.84375 -1.722656 0.84375 -2.578125 L 0.84375 -5.984375 L 1.703125 -5.984375 L 1.703125 -2.609375 C 1.703125 -1.328125 2.265625 -0.6875 3.390625 -0.6875 C 3.929688 -0.6875 4.347656 -0.84375 4.640625 -1.15625 C 4.929688 -1.476562 5.078125 -1.960938 5.078125 -2.609375 L 5.078125 -5.984375 L 5.90625 -5.984375 L 5.90625 -2.578125 C 5.90625 -1.722656 5.679688 -1.066406 5.234375 -0.609375 C 4.796875 -0.160156 4.175781 0.0625 3.375 0.0625 Z M 3.375 0.0625 "/></g></g></g><g fill="#000000" fill-opacity="1"><g transform="translate(64.706239, 82.293973)"><g><path d="M 4.890625 0 L 3.609375 -1.84375 C 3.453125 -1.832031 3.328125 -1.828125 3.234375 -1.828125 L 1.75 -1.828125 L 1.75 0 L 0.890625 0 L 0.890625 -5.984375 L 3.234375 -5.984375 C 4.003906 -5.984375 4.609375 -5.796875 5.046875 -5.421875 C 5.492188 -5.054688 5.71875 -4.546875 5.71875 -3.890625 C 5.71875 -3.429688 5.601562 -3.039062 5.375 -2.71875 C 5.15625 -2.394531 4.832031 -2.160156 4.40625 -2.015625 L 5.828125 0 Z M 3.203125 -2.546875 C 3.742188 -2.546875 4.15625 -2.660156 4.4375 -2.890625 C 4.726562 -3.128906 4.875 -3.460938 4.875 -3.890625 C 4.875 -4.328125 4.726562 -4.660156 4.4375 -4.890625 C 4.15625 -5.117188 3.742188 -5.234375 3.203125 -5.234375 L 1.75 -5.234375 L 1.75 -2.546875 Z M 3.203125 -2.546875 "/></g></g></g><g fill="#000000" fill-opacity="1"><g transform="translate(71.95436, 82.293973)"><g><path d="M 4.703125 -1.5 L 1.53125 -1.5 L 0.875 0 L -0.015625 0 L 2.703125 -5.984375 L 3.546875 -5.984375 L 6.265625 0 L 5.375 0 Z M 4.40625 -2.171875 L 3.125 -5.109375 L 1.828125 -2.171875 Z M 4.40625 -2.171875 "/></g></g></g><g fill="#000000" fill-opacity="1"><g transform="translate(79.245161, 82.293973)"><g><path d="M 6.046875 -5.984375 L 6.046875 0 L 5.34375 0 L 1.75 -4.46875 L 1.75 0 L 0.890625 0 L 0.890625 -5.984375 L 1.59375 -5.984375 L 5.1875 -1.515625 L 5.1875 -5.984375 Z M 6.046875 -5.984375 "/></g></g></g><g fill="#000000" fill-opacity="1"><g transform="translate(87.218796, 82.293973)"><g><path d="M 2.078125 -5.234375 L 0.03125 -5.234375 L 0.03125 -5.984375 L 4.984375 -5.984375 L 4.984375 -5.234375 L 2.9375 -5.234375 L 2.9375 0 L 2.078125 0 Z M 2.078125 -5.234375 "/></g></g></g><g clip-path="url(#1c87fcb728)"><path fill="#000000" d="M 36.148438 21.210938 L 22.199219 8.164062 C 22.257812 4.296875 25.824219 4.144531 25.824219 4.144531 L 39.371094 17.828125 C 37.28125 18.664062 36.460938 20.277344 36.148438 21.210938 " fill-opacity="1" fill-rule="nonzero"/></g><g clip-path="url(#ab1372348b)"><path fill="#000000" d="M 70.246094 37.914062 C 68.820312 40.914062 63.359375 49.300781 48.609375 44.007812 C 33.566406 37.839844 38.667969 24.582031 38.667969 24.582031 C 38.761719 24.34375 38.886719 24.121094 39.027344 23.90625 L 36.933594 21.949219 C 37.03125 21.464844 37.609375 19.375 40.109375 18.578125 L 43.160156 21.652344 C 46.773438 20.957031 52.03125 21.664062 57.4375 23.835938 C 58.863281 24.40625 60.210938 25.046875 61.464844 25.730469 C 61.476562 26.046875 61.496094 26.363281 61.53125 26.6875 C 60.183594 25.9375 58.707031 25.226562 57.132812 24.59375 C 48.972656 21.320312 41.28125 21.347656 39.953125 24.660156 C 38.625 27.96875 44.160156 33.308594 52.324219 36.585938 C 52.671875 36.726562 53.019531 36.859375 53.367188 36.988281 L 55.601562 37.878906 C 58.058594 38.859375 60.988281 39.0625 63.015625 39.0625 C 64.449219 39.0625 65.425781 38.964844 65.464844 38.960938 C 65.617188 38.945312 67.640625 38.757812 70.246094 37.914062 " fill-opacity="1" fill-rule="nonzero"/></g><g clip-path="url(#e52a016578)"><path fill="#fd9b41" d="M 68.085938 15.449219 C 68.085938 15.449219 67.441406 14.160156 68.582031 13.28125 C 69.722656 12.402344 69.472656 11.605469 69.472656 11.605469 C 69.472656 11.605469 70.34375 12.988281 69.167969 14.085938 C 67.988281 15.183594 68.085938 15.449219 68.085938 15.449219 Z M 81.050781 10.433594 C 82.1875 8.808594 81.769531 8.316406 81.902344 5.9375 C 82.035156 3.558594 85.308594 3.171875 85.308594 3.171875 C 85.308594 3.171875 83.9375 3.714844 83.8125 6.925781 C 83.683594 10.140625 81.050781 10.433594 81.050781 10.433594 Z M 78.007812 28.84375 C 78.007812 28.84375 74.558594 36.332031 63.839844 35.3125 C 63.839844 35.3125 66.046875 32.4375 65.175781 27.800781 C 64.59375 23.820312 67.871094 19.59375 74.683594 19.027344 C 74.683594 19.027344 69.824219 21.800781 70.300781 26.945312 C 70.78125 32.085938 78.007812 28.84375 78.007812 28.84375 Z M 85.351562 10.542969 C 85.351562 10.542969 82.464844 13.71875 76.445312 14.71875 C 68.765625 15.476562 65.464844 21.09375 65.464844 21.09375 C 65.464844 21.09375 65.011719 20.003906 66.507812 18.003906 C 66.507812 18.003906 60.957031 19.121094 62.765625 28.617188 C 62.960938 29.632812 62.980469 30.496094 62.855469 31.238281 L 62.859375 31.238281 C 62.859375 31.238281 62.527344 35.46875 55.953125 36.992188 C 58.269531 37.917969 61.074219 38.113281 63.015625 38.113281 C 64.414062 38.113281 65.367188 38.011719 65.367188 38.011719 C 65.367188 38.011719 72.78125 37.386719 77.535156 32.53125 C 81.308594 28.667969 81.324219 25.042969 81.179688 23.714844 C 81.171875 23.714844 80.046875 26.058594 77.457031 27.078125 L 77.449219 27.066406 C 77.449219 27.066406 77.132812 27.164062 76.78125 27.164062 C 76.171875 27.164062 75.46875 26.871094 76.207031 25.253906 C 77.089844 24.152344 78.472656 22.953125 80.640625 22.035156 C 85.933594 19.796875 85.351562 10.542969 85.351562 10.542969 " fill-opacity="1" fill-rule="nonzero"/></g></svg>