<?xml version="1.0" encoding="utf-8"?>
<!-- Generator: Adobe Illustrator 21.0.0, SVG Export Plug-In . SVG Version: 6.00 Build 0)  -->
<svg version="1.1" id="Capa_1" xmlns="http://www.w3.org/2000/svg" xmlns:xlink="http://www.w3.org/1999/xlink" x="0px" y="0px"
	 viewBox="0 0 40 40" style="enable-background:new 0 0 40 40;" xml:space="preserve">
<style type="text/css">
	.st0{fill:#FFFFFF;}
	.st1{clip-path:url(#SVGID_2_);}
	.st2{clip-path:url(#SVGID_4_);}
	.st3{clip-path:url(#SVGID_6_);}
	.st4{fill:#FD9B41;}
</style>
<g id="Capa_2">
	<path class="st0" d="M33.7,40H6.3C2.8,40,0,37.2,0,33.7V6.3C0,2.8,2.8,0,6.3,0h27.4C37.2,0,40,2.8,40,6.3v27.4
		C40,37.2,37.2,40,33.7,40z"/>
</g>
<g>
	<defs>
		<rect id="SVGID_1_" x="0.4" y="7.3" width="11.1" height="11.2"/>
	</defs>
	<clipPath id="SVGID_2_">
		<use xlink:href="#SVGID_1_"  style="overflow:visible;"/>
	</clipPath>
	<g class="st1">
		<path d="M9.1,18L0.4,9.9c0-2.4,2.3-2.5,2.3-2.5l8.4,8.5C9.8,16.4,9.2,17.4,9.1,18"/>
	</g>
</g>
<g>
	<defs>
		<rect id="SVGID_3_" x="9.5" y="16.3" width="20.8" height="16.9"/>
	</defs>
	<clipPath id="SVGID_4_">
		<use xlink:href="#SVGID_3_"  style="overflow:visible;"/>
	</clipPath>
	<g class="st2">
		<path d="M30.2,28.4c-0.9,1.9-4.3,7.1-13.4,3.8c-9.3-3.8-6.2-12.1-6.2-12.1c0.1-0.1,0.1-0.3,0.2-0.4l-1.3-1.2
			c0.1-0.3,0.4-1.6,2-2.1l1.9,1.9c2.2-0.4,5.5,0,8.9,1.4c0.9,0.4,1.7,0.8,2.5,1.2c0,0.2,0,0.4,0,0.6c-0.8-0.5-1.8-0.9-2.7-1.3
			c-5.1-2-9.9-2-10.7,0c-0.8,2.1,2.6,5.4,7.7,7.4c0.2,0.1,0.4,0.2,0.6,0.3l1.4,0.6c1.5,0.6,3.3,0.7,4.6,0.7c0.9,0,1.5-0.1,1.5-0.1
			C27.4,29,28.6,28.9,30.2,28.4"/>
	</g>
</g>
<g>
	<defs>
		<rect id="SVGID_5_" x="21.3" y="6.8" width="18.3" height="21.8"/>
	</defs>
	<clipPath id="SVGID_6_">
		<use xlink:href="#SVGID_5_"  style="overflow:visible;"/>
	</clipPath>
	<g class="st3">
		<path class="st4" d="M28.9,14.4c0,0-0.4-0.8,0.3-1.3c0.7-0.5,0.6-1,0.6-1s0.5,0.9-0.2,1.5C28.8,14.2,28.9,14.4,28.9,14.4z
			 M37,11.3c0.7-1,0.4-1.3,0.5-2.8s2.1-1.7,2.1-1.7s-0.9,0.3-0.9,2.3C38.6,11.1,37,11.3,37,11.3z M35.1,22.7c0,0-2.1,4.7-8.8,4
			c0,0,1.4-1.8,0.8-4.7c-0.4-2.5,1.7-5.1,5.9-5.5c0,0-3,1.7-2.7,4.9C30.6,24.7,35.1,22.7,35.1,22.7z M39.6,11.4c0,0-1.8,2-5.5,2.6
			c-4.8,0.5-6.8,4-6.8,4S27,17.2,27.9,16c0,0-3.4,0.7-2.3,6.6c0.1,0.6,0.1,1.2,0.1,1.6h0c0,0-0.2,2.6-4.3,3.6
			c1.4,0.6,3.2,0.7,4.4,0.7c0.9,0,1.5-0.1,1.5-0.1s4.6-0.4,7.6-3.4c2.3-2.4,2.4-4.7,2.3-5.5c0,0-0.7,1.5-2.3,2.1l0,0
			c0,0-0.2,0.1-0.4,0.1c-0.4,0-0.8-0.2-0.4-1.2c0.5-0.7,1.4-1.4,2.8-2C40,17.1,39.6,11.4,39.6,11.4"/>
	</g>
</g>
</svg>
